<?xml version="1.0"?>
<svg width="20" height="20" xmlns="http://www.w3.org/2000/svg" xmlns:svg="http://www.w3.org/2000/svg">
 <defs>
  <linearGradient id="svg_3" x1="0.5" x2="0.5" y1="0" y2="1">
   <stop stop-color="#00687d" stop-opacity="1"/>
   <stop offset="1" stop-color="#00d0f9" stop-opacity="1"/>
  </linearGradient>
 </defs>
 <g class="layer">
  <title>Layer 1</title>
  <path d="m10,1.67c-4.58,0 -8.33,3.75 -8.33,8.33s3.75,8.33 8.33,8.33s8.33,-3.75 8.33,-8.33s-3.75,-8.33 -8.33,-8.33zm2.96,11.5l-3.4,-2.1a0.82,0.82 0 0 1 -0.4,-0.7l0,-3.91a0.64,0.64 0 0 1 0.63,-0.63a0.63,0.63 0 0 1 0.63,0.63l0,3.71l3.2,1.92c0.3,0.19 0.4,0.58 0.21,0.88a0.64,0.64 0 0 1 -0.87,0.2z" fill="url(#svg_3)" id="svg_1"/>
 </g>
</svg>