<?xml version="1.0"?>
<svg width="32" height="32" xmlns="http://www.w3.org/2000/svg" xmlns:svg="http://www.w3.org/2000/svg">
 <defs>
  <linearGradient id="svg_3" x1="0.5" x2="0.5" y1="0" y2="1">
   <stop stop-color="#00d0f9" stop-opacity="1"/>
   <stop offset="1" stop-color="#00687d" stop-opacity="1"/>
   <stop id="jq_stop_3584" offset="1.02" stop-color="0" stop-opacity="0"/>
  </linearGradient>
 </defs>
 <g class="layer">
  <title>Layer 1</title>
  <path d="m16,10.67a5.33,5.33 0 0 0 -5.33,5.33a5.33,5.33 0 0 0 5.33,5.33a5.33,5.33 0 0 0 5.33,-5.33a5.33,5.33 0 0 0 -5.33,-5.33zm11.92,4a11.99,11.99 0 0 0 -10.59,-10.59l0,-1.41c0,-0.74 -0.6,-1.34 -1.33,-1.34c-0.73,0 -1.33,0.6 -1.33,1.34l0,1.41a11.99,11.99 0 0 0 -10.59,10.59l-1.41,0c-0.74,0 -1.34,0.6 -1.34,1.33s0.6,1.33 1.34,1.33l1.41,0a11.99,11.99 0 0 0 10.59,10.59l0,1.41c0,0.74 0.6,1.34 1.33,1.34c0.73,0 1.33,-0.6 1.33,-1.34l0,-1.41a11.99,11.99 0 0 0 10.59,-10.59l1.41,0c0.74,0 1.34,-0.6 1.34,-1.33s-0.6,-1.33 -1.34,-1.33l-1.41,0zm-11.92,10.66a9.33,9.33 0 0 1 -9.33,-9.33a9.33,9.33 0 0 1 9.33,-9.33a9.33,9.33 0 0 1 9.33,9.33a9.33,9.33 0 0 1 -9.33,9.33z" fill="url(#svg_3)" id="svg_1"/>
 </g>
</svg>