<?xml version="1.0"?>
<svg width="20" height="20" xmlns="http://www.w3.org/2000/svg" xmlns:svg="http://www.w3.org/2000/svg">
 <defs>
  <linearGradient id="svg_3" x1="0.5" x2="0.5" y1="0" y2="1">
   <stop stop-color="#00687d" stop-opacity="1"/>
   <stop offset="1" stop-color="#00d0f9" stop-opacity="1"/>
  </linearGradient>
 </defs>
 <g class="layer">
  <title>Layer 1</title>
  <path d="m16.02,12.72l-2.11,-0.25a1.66,1.66 0 0 0 -1.37,0.48l-1.53,1.53a12.54,12.54 0 0 1 -5.49,-5.49l1.54,-1.54c0.36,-0.36 0.53,-0.86 0.47,-1.37l-0.24,-2.1a1.67,1.67 0 0 0 -1.66,-1.47l-1.44,0c-0.94,0 -1.72,0.78 -1.66,1.72c0.44,7.12 6.13,12.8 13.24,13.25c0.94,0.05 1.72,-0.73 1.72,-1.67l0,-1.44a1.65,1.65 0 0 0 -1.47,-1.65z" fill="url(#svg_3)" id="svg_1"/>
 </g>
</svg>