<?xml version="1.0"?>
<svg width="32" height="32" xmlns="http://www.w3.org/2000/svg" xmlns:svg="http://www.w3.org/2000/svg">
 <defs>
  <linearGradient id="svg_3" x1="0.5" x2="0.5" y1="0" y2="1">
   <stop stop-color="#00d0f9" stop-opacity="1"/>
   <stop offset="1" stop-color="#00687d" stop-opacity="1"/>
  </linearGradient>
 </defs>
 <g class="layer">
  <title>Layer 1</title>
  <path d="m16,0c-4.35,0 -4.89,0.02 -6.6,0.1c-1.7,0.08 -2.86,0.34 -3.88,0.74a7.83,7.83 0 0 0 -2.84,1.85a7.81,7.81 0 0 0 -1.84,2.83c-0.4,1.02 -0.66,2.18 -0.74,3.88c-0.08,1.71 -0.1,2.25 -0.1,6.6c0,4.35 0.02,4.89 0.1,6.6c0.08,1.7 0.34,2.86 0.74,3.88a7.85,7.85 0 0 0 1.85,2.84a7.83,7.83 0 0 0 2.83,1.84c1.02,0.39 2.18,0.66 3.88,0.74c1.71,0.08 2.25,0.1 6.6,0.1c4.35,0 4.89,-0.02 6.6,-0.1c1.7,-0.08 2.86,-0.35 3.88,-0.74a7.86,7.86 0 0 0 2.84,-1.84a7.81,7.81 0 0 0 1.84,-2.84c0.39,-1.02 0.66,-2.18 0.74,-3.88c0.08,-1.71 0.1,-2.25 0.1,-6.6c0,-4.35 -0.02,-4.89 -0.1,-6.6c-0.08,-1.7 -0.35,-2.86 -0.74,-3.88a7.85,7.85 0 0 0 -1.84,-2.84a7.8,7.8 0 0 0 -2.84,-1.84c-1.02,-0.4 -2.18,-0.66 -3.88,-0.74c-1.71,-0.08 -2.25,-0.1 -6.6,-0.1zm0,2.88c4.27,0 4.78,0.02 6.47,0.1c1.56,0.07 2.4,0.33 2.97,0.55c0.75,0.29 1.28,0.63 1.84,1.19c0.56,0.56 0.9,1.09 1.19,1.84c0.22,0.57 0.48,1.41 0.55,2.97c0.08,1.69 0.1,2.2 0.1,6.47s-0.02,4.78 -0.1,6.47c-0.08,1.56 -0.34,2.4 -0.56,2.97c-0.3,0.75 -0.64,1.28 -1.2,1.84a4.99,4.99 0 0 1 -1.84,1.19c-0.56,0.22 -1.42,0.48 -2.98,0.55c-1.7,0.08 -2.2,0.1 -6.48,0.1c-4.28,0 -4.78,-0.02 -6.48,-0.1c-1.56,-0.08 -2.42,-0.34 -2.98,-0.56c-0.76,-0.3 -1.28,-0.64 -1.84,-1.2a4.86,4.86 0 0 1 -1.2,-1.84c-0.22,-0.56 -0.48,-1.42 -0.56,-2.98c-0.06,-1.68 -0.08,-2.2 -0.08,-6.46c0,-4.26 0.02,-4.78 0.08,-6.48c0.08,-1.56 0.34,-2.42 0.56,-2.98c0.28,-0.76 0.64,-1.28 1.2,-1.84c0.56,-0.56 1.08,-0.92 1.84,-1.2c0.56,-0.22 1.4,-0.48 2.96,-0.56c1.7,-0.06 2.2,-0.08 6.48,-0.08l0.06,0.04zm0,4.9a8.21,8.21 0 0 0 -8.22,8.22c0,4.54 3.68,8.22 8.22,8.22c4.54,0 8.22,-3.68 8.22,-8.22c0,-4.54 -3.68,-8.22 -8.22,-8.22zm0,13.55a5.33,5.33 0 0 1 -5.33,-5.33a5.33,5.33 0 0 1 5.33,-5.33a5.33,5.33 0 0 1 5.33,5.33a5.33,5.33 0 0 1 -5.33,5.33zm10.46,-13.87c0,1.06 -0.86,1.92 -1.92,1.92c-1.06,0 -1.92,-0.86 -1.92,-1.92a1.92,1.92 0 0 1 3.84,0z" fill="url(#svg_3)" id="svg_1"/>
 </g>
</svg>